# xmcd
#
# Track frame offsets: 
#        150
#        2781
#        17480
#        32229
#        44913
#        64622
#        77976
#        94606
#        107539
#        124127
#        139503
#        158655
#        179310
#        199171
#        216502
#        236703
#        265175
#
# Disc length: 3875 seconds
#
# Revision: 2
# Processed by: cddbd v1.5.2PL0 Copyright (c) Steve Scherf et al.
# Submitted via: ExactAudioCopyFreeDBPlugin 1.0
#
DISCID=ea0f2111
DTITLE=Joss Stone - Introducing
DYEAR=2007
DGENRE=Soul
TTITLE0=Change (Vinnie Jones Intro)
TTITLE1=Girl They Won't Believe It
TTITLE2=Headturner
TTITLE3=Tell Me 'Bout It
TTITLE4=Tell Me What We're Gonna Do Now (feat. Common)
TTITLE5=Out Your Hands On Me
TTITLE6=Music (feat. Lauryn Hill)
TTITLE7=Arms Of My Baby
TTITLE8=Bad Habit
TTITLE9=Proper Nice
TTITLE10=Bruised But Not Broken
TTITLE11=Baby, Baby, Baby
TTITLE12=What Were We Thinking
TTITLE13=Music (Outro)
TTITLE14=Big Ol' Game
TTITLE15=My God
TTITLE16=Tell Me 'Bout It (Video)
EXTD=YEAR: 2007
EXTT0=
EXTT1=
EXTT2=
EXTT3=
EXTT4=
EXTT5=
EXTT6=
EXTT7=
EXTT8=
EXTT9=
EXTT10=
EXTT11=
EXTT12=
EXTT13=
EXTT14=
EXTT15=
EXTT16=
PLAYORDER=
